<mxfile host="app.diagrams.net" modified="2022-05-12T07:43:44.380Z" agent="5.0 (Macintosh; Intel Mac OS X 10_15_7) AppleWebKit/537.36 (KHTML, like Gecko) Chrome/101.0.4951.41 Safari/537.36" etag="aPjal_KPyPIsJa383gfV" version="18.0.3" type="github">
  <diagram id="lcaft4o6eY_eqBfQJFKO" name="Page-1">
    <mxGraphModel dx="1226" dy="1047" grid="1" gridSize="10" guides="1" tooltips="1" connect="1" arrows="1" fold="1" page="1" pageScale="1" pageWidth="850" pageHeight="1100" math="0" shadow="0">
      <root>
        <mxCell id="0" />
        <mxCell id="1" parent="0" />
        <mxCell id="i9Lfaf7oHmcKqssKS3AH-2" value="Customers DB" style="outlineConnect=0;dashed=0;verticalLabelPosition=bottom;verticalAlign=top;align=center;html=1;shape=mxgraph.aws3.postgre_sql_instance;fillColor=#2E73B8;gradientColor=none;" vertex="1" parent="1">
          <mxGeometry x="343.5" y="757" width="60" height="63" as="geometry" />
        </mxCell>
        <mxCell id="i9Lfaf7oHmcKqssKS3AH-18" value="1" style="edgeStyle=orthogonalEdgeStyle;rounded=0;orthogonalLoop=1;jettySize=auto;html=1;entryX=0;entryY=0.5;entryDx=0;entryDy=0;entryPerimeter=0;" edge="1" parent="1" source="i9Lfaf7oHmcKqssKS3AH-3" target="i9Lfaf7oHmcKqssKS3AH-8">
          <mxGeometry relative="1" as="geometry" />
        </mxCell>
        <mxCell id="i9Lfaf7oHmcKqssKS3AH-3" value="" style="outlineConnect=0;dashed=0;verticalLabelPosition=bottom;verticalAlign=top;align=center;html=1;shape=mxgraph.aws3.user;fillColor=#D2D3D3;gradientColor=none;" vertex="1" parent="1">
          <mxGeometry x="80" y="577" width="45" height="63" as="geometry" />
        </mxCell>
        <mxCell id="i9Lfaf7oHmcKqssKS3AH-12" value="1" style="edgeStyle=orthogonalEdgeStyle;rounded=0;orthogonalLoop=1;jettySize=auto;html=1;entryX=0;entryY=0.5;entryDx=0;entryDy=0;entryPerimeter=0;" edge="1" parent="1" source="i9Lfaf7oHmcKqssKS3AH-5" target="i9Lfaf7oHmcKqssKS3AH-9">
          <mxGeometry relative="1" as="geometry" />
        </mxCell>
        <mxCell id="i9Lfaf7oHmcKqssKS3AH-5" value="Kubernetes CronJob" style="outlineConnect=0;dashed=0;verticalLabelPosition=bottom;verticalAlign=top;align=center;html=1;shape=mxgraph.aws3.maintenance_window;fillColor=#759C3E;gradientColor=none;" vertex="1" parent="1">
          <mxGeometry x="80" y="110" width="75" height="78" as="geometry" />
        </mxCell>
        <mxCell id="i9Lfaf7oHmcKqssKS3AH-23" value="2" style="edgeStyle=orthogonalEdgeStyle;rounded=0;orthogonalLoop=1;jettySize=auto;html=1;" edge="1" parent="1" source="i9Lfaf7oHmcKqssKS3AH-8" target="i9Lfaf7oHmcKqssKS3AH-2">
          <mxGeometry relative="1" as="geometry" />
        </mxCell>
        <mxCell id="i9Lfaf7oHmcKqssKS3AH-8" value="Customers API" style="outlineConnect=0;dashed=0;verticalLabelPosition=bottom;verticalAlign=top;align=center;html=1;shape=mxgraph.aws3.android;fillColor=#96BF3D;gradientColor=none;" vertex="1" parent="1">
          <mxGeometry x="336.75" y="566.5" width="73.5" height="84" as="geometry" />
        </mxCell>
        <mxCell id="i9Lfaf7oHmcKqssKS3AH-13" value="2" style="edgeStyle=orthogonalEdgeStyle;rounded=0;orthogonalLoop=1;jettySize=auto;html=1;entryX=0;entryY=0.87;entryDx=0;entryDy=0;entryPerimeter=0;" edge="1" parent="1" source="i9Lfaf7oHmcKqssKS3AH-9" target="i9Lfaf7oHmcKqssKS3AH-11">
          <mxGeometry relative="1" as="geometry" />
        </mxCell>
        <mxCell id="i9Lfaf7oHmcKqssKS3AH-14" value="3" style="edgeStyle=orthogonalEdgeStyle;rounded=0;orthogonalLoop=1;jettySize=auto;html=1;" edge="1" parent="1" source="i9Lfaf7oHmcKqssKS3AH-9" target="i9Lfaf7oHmcKqssKS3AH-10">
          <mxGeometry relative="1" as="geometry" />
        </mxCell>
        <mxCell id="i9Lfaf7oHmcKqssKS3AH-9" value="Invoices API" style="outlineConnect=0;dashed=0;verticalLabelPosition=bottom;verticalAlign=top;align=center;html=1;shape=mxgraph.aws3.android;fillColor=#AE1F23;gradientColor=none;" vertex="1" parent="1">
          <mxGeometry x="330" y="250" width="73.5" height="84" as="geometry" />
        </mxCell>
        <mxCell id="i9Lfaf7oHmcKqssKS3AH-10" value="Invoices DB" style="outlineConnect=0;dashed=0;verticalLabelPosition=bottom;verticalAlign=top;align=center;html=1;shape=mxgraph.aws3.postgre_sql_instance;fillColor=#2E73B8;gradientColor=none;" vertex="1" parent="1">
          <mxGeometry x="336.75" y="100" width="60" height="63" as="geometry" />
        </mxCell>
        <mxCell id="i9Lfaf7oHmcKqssKS3AH-11" value="CSV API" style="outlineConnect=0;dashed=0;verticalLabelPosition=bottom;verticalAlign=top;align=center;html=1;shape=mxgraph.aws3.toolkit_for_eclipse;fillColor=#342074;gradientColor=none;" vertex="1" parent="1">
          <mxGeometry x="700" y="240" width="70.5" height="78" as="geometry" />
        </mxCell>
        <mxCell id="i9Lfaf7oHmcKqssKS3AH-15" value="Guardado de Invoices al dia" style="swimlane;" vertex="1" parent="1">
          <mxGeometry x="50" y="20" width="770" height="360" as="geometry" />
        </mxCell>
        <mxCell id="i9Lfaf7oHmcKqssKS3AH-16" value="1. Kubernetes Cron se ejecuta cada 24h&lt;br&gt;2. Invoices API expone un servicio para sincronizar invoices, el cual va al api de CSV&lt;br&gt;3. Guarda la info del CSV en la DB" style="text;html=1;strokeColor=none;fillColor=none;align=center;verticalAlign=middle;whiteSpace=wrap;rounded=0;fontStyle=1" vertex="1" parent="i9Lfaf7oHmcKqssKS3AH-15">
          <mxGeometry x="470" y="50" width="280" height="70" as="geometry" />
        </mxCell>
        <mxCell id="i9Lfaf7oHmcKqssKS3AH-26" value="Customer API / CREA / ACTUALIZA" style="swimlane;" vertex="1" parent="1">
          <mxGeometry x="40" y="500" width="770" height="360" as="geometry" />
        </mxCell>
        <mxCell id="i9Lfaf7oHmcKqssKS3AH-38" value="Busqueda de invoices" style="swimlane;" vertex="1" parent="1">
          <mxGeometry x="40" y="1000" width="770" height="470" as="geometry" />
        </mxCell>
        <mxCell id="i9Lfaf7oHmcKqssKS3AH-17" value="Exchange Rate API" style="outlineConnect=0;dashed=0;verticalLabelPosition=bottom;verticalAlign=top;align=center;html=1;shape=mxgraph.aws3.toolkit_for_visual_studio;fillColor=#53B1CB;gradientColor=none;" vertex="1" parent="i9Lfaf7oHmcKqssKS3AH-38">
          <mxGeometry x="640" y="82.5" width="70.5" height="78" as="geometry" />
        </mxCell>
        <mxCell id="i9Lfaf7oHmcKqssKS3AH-40" value="" style="outlineConnect=0;dashed=0;verticalLabelPosition=bottom;verticalAlign=top;align=center;html=1;shape=mxgraph.aws3.user;fillColor=#D2D3D3;gradientColor=none;" vertex="1" parent="i9Lfaf7oHmcKqssKS3AH-38">
          <mxGeometry x="55" y="90" width="45" height="63" as="geometry" />
        </mxCell>
        <mxCell id="i9Lfaf7oHmcKqssKS3AH-41" value="4" style="edgeStyle=orthogonalEdgeStyle;rounded=0;orthogonalLoop=1;jettySize=auto;html=1;entryX=0;entryY=0.61;entryDx=0;entryDy=0;entryPerimeter=0;startArrow=classic;startFill=1;" edge="1" parent="i9Lfaf7oHmcKqssKS3AH-38" source="i9Lfaf7oHmcKqssKS3AH-35" target="i9Lfaf7oHmcKqssKS3AH-17">
          <mxGeometry relative="1" as="geometry" />
        </mxCell>
        <mxCell id="i9Lfaf7oHmcKqssKS3AH-46" value="5" style="edgeStyle=orthogonalEdgeStyle;rounded=0;orthogonalLoop=1;jettySize=auto;html=1;entryX=0;entryY=0.5;entryDx=0;entryDy=0;entryPerimeter=0;startArrow=classic;startFill=1;exitX=1;exitY=0.75;exitDx=0;exitDy=0;exitPerimeter=0;" edge="1" parent="i9Lfaf7oHmcKqssKS3AH-38" source="i9Lfaf7oHmcKqssKS3AH-35" target="i9Lfaf7oHmcKqssKS3AH-43">
          <mxGeometry relative="1" as="geometry" />
        </mxCell>
        <mxCell id="i9Lfaf7oHmcKqssKS3AH-35" value="Invoices API" style="outlineConnect=0;dashed=0;verticalLabelPosition=bottom;verticalAlign=top;align=center;html=1;shape=mxgraph.aws3.android;fillColor=#AE1F23;gradientColor=none;" vertex="1" parent="i9Lfaf7oHmcKqssKS3AH-38">
          <mxGeometry x="286.75" y="90" width="73.5" height="84" as="geometry" />
        </mxCell>
        <mxCell id="i9Lfaf7oHmcKqssKS3AH-36" value="Invoices DB" style="outlineConnect=0;dashed=0;verticalLabelPosition=bottom;verticalAlign=top;align=center;html=1;shape=mxgraph.aws3.postgre_sql_instance;fillColor=#2E73B8;gradientColor=none;" vertex="1" parent="i9Lfaf7oHmcKqssKS3AH-38">
          <mxGeometry x="293.5" y="290" width="60" height="63" as="geometry" />
        </mxCell>
        <mxCell id="i9Lfaf7oHmcKqssKS3AH-34" value="3" style="edgeStyle=orthogonalEdgeStyle;rounded=0;orthogonalLoop=1;jettySize=auto;html=1;" edge="1" parent="i9Lfaf7oHmcKqssKS3AH-38" source="i9Lfaf7oHmcKqssKS3AH-35" target="i9Lfaf7oHmcKqssKS3AH-36">
          <mxGeometry relative="1" as="geometry" />
        </mxCell>
        <mxCell id="i9Lfaf7oHmcKqssKS3AH-31" value="1" style="edgeStyle=orthogonalEdgeStyle;rounded=0;orthogonalLoop=1;jettySize=auto;html=1;entryX=0;entryY=0.5;entryDx=0;entryDy=0;entryPerimeter=0;" edge="1" parent="i9Lfaf7oHmcKqssKS3AH-38" source="i9Lfaf7oHmcKqssKS3AH-40" target="i9Lfaf7oHmcKqssKS3AH-35">
          <mxGeometry relative="1" as="geometry">
            <mxPoint x="105" y="19" as="sourcePoint" />
          </mxGeometry>
        </mxCell>
        <mxCell id="i9Lfaf7oHmcKqssKS3AH-43" value="" style="outlineConnect=0;dashed=0;verticalLabelPosition=bottom;verticalAlign=top;align=center;html=1;shape=mxgraph.aws3.cache_node;fillColor=#2E73B8;gradientColor=none;" vertex="1" parent="i9Lfaf7oHmcKqssKS3AH-38">
          <mxGeometry x="520" y="240" width="60" height="63" as="geometry" />
        </mxCell>
        <mxCell id="i9Lfaf7oHmcKqssKS3AH-48" value="Busqueda de Invoices&lt;br&gt;1. El usuario solicita una busqueda a través del INVOICES API&lt;br&gt;2. El API consulta la información del currency al CUSTOMERS API&lt;br&gt;3. Se realiza una busqueda de INVOICES en la tabla&lt;br&gt;4. Se obtiene la información del EXCHANGE RATE API o de la CACHE.&amp;nbsp;" style="text;html=1;strokeColor=none;fillColor=none;align=center;verticalAlign=middle;whiteSpace=wrap;rounded=0;fontStyle=1" vertex="1" parent="i9Lfaf7oHmcKqssKS3AH-38">
          <mxGeometry x="440" y="330" width="310" height="120" as="geometry" />
        </mxCell>
        <mxCell id="i9Lfaf7oHmcKqssKS3AH-42" value="2" style="edgeStyle=orthogonalEdgeStyle;rounded=0;orthogonalLoop=1;jettySize=auto;html=1;startArrow=classic;startFill=1;" edge="1" parent="1" source="i9Lfaf7oHmcKqssKS3AH-35">
          <mxGeometry relative="1" as="geometry">
            <mxPoint x="363.5" y="860" as="targetPoint" />
          </mxGeometry>
        </mxCell>
      </root>
    </mxGraphModel>
  </diagram>
</mxfile>
